<svg id="Layer_1" enable-background="new 0 0 512 512" height="512" viewBox="0 0 512 512" width="512" xmlns="http://www.w3.org/2000/svg"><path style="fill:#fffffe" d="m512 357.5-.001-94c0-31.323-24.132-57.101-54.777-59.758-.842-.146-11.661-.241-11.661-.241l-63.963-137.334c-2.463-5.287-7.766-8.667-13.598-8.667h-353c-8.284 0-15 6.716-15 15v330c0 8.284 6.716 15 15 15h33.847c5.921 21.31 25.483 37 48.653 37s42.732-15.69 48.653-37h228.194c5.921 21.31 25.483 37 48.653 37 24.47 0 44.925-17.497 49.526-40.636 23.257-8.546 39.474-31.164 39.474-56.364zm-99.532-153.997h-52.468v-112.652zm-314.968 220.997c-11.304 0-20.5-9.196-20.5-20.5s9.196-20.5 20.5-20.5 20.5 9.196 20.5 20.5-9.196 20.5-20.5 20.5zm325.5 0c-11.304 0-20.5-9.196-20.5-20.5s9.196-20.5 20.5-20.5 20.5 9.196 20.5 20.5-9.196 20.5-20.5 20.5zm45.641-42.092c-8.11-17.073-25.517-28.908-45.641-28.908-22.068 0-40.863 14.235-47.718 34h-230.064c-6.854-19.766-25.649-34-47.718-34s-40.863 14.235-47.718 34h-19.782v-300h300v131.003c0 8.284 6.716 15 15 15h107.134c16.48.073 29.865 13.499 29.865 29.996l.001 94c0 10.136-5.251 19.433-13.359 24.909z"/><path style="fill:#fffffe" d="m285 117.5h-210c-8.284 0-15 6.716-15 15v150c0 8.284 6.716 15 15 15h210c8.284 0 15-6.716 15-15v-150c0-8.284-6.716-15-15-15zm-15 60h-35v-30h35zm-114.999 0v-30h49.999v30zm-30-30v30h-35.001v-30zm-35.001 120v-60h180v60z"/></svg>
